<svg width="100%" height="100%" viewBox="0 0 601 529" fill="none" xmlns="http://www.w3.org/2000/svg" style="
    /* display: none; */
"><mask id="mask0_302_1083" maskUnits="userSpaceOnUse" x="464" y="-1" width="137" height="530"><path d="M464.009 -0.00012207L464.009 528.77L600.501 528.77L600.501 -0.000128037L464.009 -0.00012207Z" fill="white"></path></mask><g mask="url(#mask0_302_1083)"><g opacity="0.7"><mask id="mask1_302_1083" maskUnits="userSpaceOnUse" x="464" y="-1" width="137" height="530"><path d="M464.009 -0.00012207L464.009 528.77L600.501 528.77L600.501 -0.000128037L464.009 -0.00012207Z" fill="white"></path></mask><g mask="url(#mask1_302_1083)"><path d="M464.21 409.085L464.21 118.3L600.298 0.44378L598.725 528.322L464.21 409.085Z" stroke="#B5E4FF" stroke-width="0.773056" stroke-miterlimit="10"></path><path d="M587.556 518.423L588.944 10.2749" stroke="#B5E4FF" stroke-width="0.773056" stroke-miterlimit="10"></path><path d="M577.19 509.234L578.415 19.3929" stroke="#B5E4FF" stroke-width="0.773056" stroke-miterlimit="10"></path><path d="M567.54 500.68L568.621 27.8746" stroke="#B5E4FF" stroke-width="0.773056" stroke-miterlimit="10"></path><path d="M558.536 492.699L559.49 35.7833" stroke="#B5E4FF" stroke-width="0.773056" stroke-miterlimit="10"></path><path d="M550.116 485.234L550.956 43.1742" stroke="#B5E4FF" stroke-width="0.773056" stroke-miterlimit="10"></path><path d="M542.222 478.237L542.961 50.0986" stroke="#B5E4FF" stroke-width="0.773056" stroke-miterlimit="10"></path><path d="M534.81 471.666L535.458 56.5975" stroke="#B5E4FF" stroke-width="0.773056" stroke-miterlimit="10"></path><path d="M527.831 465.481L528.398 62.7099" stroke="#B5E4FF" stroke-width="0.773056" stroke-miterlimit="10"></path><path d="M521.257 459.652L521.751 68.4682" stroke="#B5E4FF" stroke-width="0.773056" stroke-miterlimit="10"></path><path d="M515.046 454.147L515.473 73.9042" stroke="#B5E4FF" stroke-width="0.773056" stroke-miterlimit="10"></path><path d="M509.173 448.94L509.54 79.0428" stroke="#B5E4FF" stroke-width="0.773056" stroke-miterlimit="10"></path><path d="M503.608 444.009L503.922 83.9082" stroke="#B5E4FF" stroke-width="0.773056" stroke-miterlimit="10"></path><path d="M498.327 439.331L498.592 88.5208" stroke="#B5E4FF" stroke-width="0.773056" stroke-miterlimit="10"></path><path d="M493.317 434.887L493.537 92.9009" stroke="#B5E4FF" stroke-width="0.773056" stroke-miterlimit="10"></path><path d="M488.55 430.659L488.729 97.0655" stroke="#B5E4FF" stroke-width="0.773056" stroke-miterlimit="10"></path><path d="M484.009 426.634L484.151 101.03" stroke="#B5E4FF" stroke-width="0.773056" stroke-miterlimit="10"></path><path d="M479.681 422.797L479.789 104.808" stroke="#B5E4FF" stroke-width="0.773056" stroke-miterlimit="10"></path><path d="M475.548 419.135L475.626 108.414" stroke="#B5E4FF" stroke-width="0.773056" stroke-miterlimit="10"></path><path d="M471.601 415.636L471.65 111.856" stroke="#B5E4FF" stroke-width="0.773056" stroke-miterlimit="10"></path><path d="M467.825 412.289L467.849 115.149" stroke="#B5E4FF" stroke-width="0.773056" stroke-miterlimit="10"></path><path d="M464.21 132.231L600.222 25.8603" stroke="#B5E4FF" stroke-width="0.773056" stroke-miterlimit="10"></path><path d="M464.21 146.154L600.146 51.2485" stroke="#B5E4FF" stroke-width="0.773056" stroke-miterlimit="10"></path><path d="M464.21 160.069L600.071 76.6094" stroke="#B5E4FF" stroke-width="0.773056" stroke-miterlimit="10"></path><path d="M464.21 173.976L599.995 101.941" stroke="#B5E4FF" stroke-width="0.773056" stroke-miterlimit="10"></path><path d="M464.21 187.872L599.919 127.245" stroke="#B5E4FF" stroke-width="0.773056" stroke-miterlimit="10"></path><path d="M464.21 201.762L599.844 152.521" stroke="#B5E4FF" stroke-width="0.773056" stroke-miterlimit="10"></path><path d="M464.21 215.642L599.769 177.769" stroke="#B5E4FF" stroke-width="0.773056" stroke-miterlimit="10"></path><path d="M464.21 229.514L599.694 202.989" stroke="#B5E4FF" stroke-width="0.773056" stroke-miterlimit="10"></path><path d="M464.21 243.379L599.619 228.18" stroke="#B5E4FF" stroke-width="0.773056" stroke-miterlimit="10"></path><path d="M464.21 257.234L599.544 253.345" stroke="#B5E4FF" stroke-width="0.773056" stroke-miterlimit="10"></path><path d="M464.21 271.08L599.469 278.482" stroke="#B5E4FF" stroke-width="0.773056" stroke-miterlimit="10"></path><path d="M464.21 284.919L599.394 303.59" stroke="#B5E4FF" stroke-width="0.773056" stroke-miterlimit="10"></path><path d="M464.21 298.749L599.319 328.671" stroke="#B5E4FF" stroke-width="0.773056" stroke-miterlimit="10"></path><path d="M464.21 312.57L599.245 353.723" stroke="#B5E4FF" stroke-width="0.773056" stroke-miterlimit="10"></path><path d="M464.21 326.383L599.17 378.748" stroke="#B5E4FF" stroke-width="0.773056" stroke-miterlimit="10"></path><path d="M464.21 340.188L599.096 403.746" stroke="#B5E4FF" stroke-width="0.773056" stroke-miterlimit="10"></path><path d="M464.21 353.984L599.022 428.717" stroke="#B5E4FF" stroke-width="0.773056" stroke-miterlimit="10"></path><path d="M464.21 367.771L598.947 453.659" stroke="#B5E4FF" stroke-width="0.773056" stroke-miterlimit="10"></path><path d="M464.21 381.551L598.873 478.574" stroke="#B5E4FF" stroke-width="0.773056" stroke-miterlimit="10"></path><path d="M464.21 395.322L598.798 503.462" stroke="#B5E4FF" stroke-width="0.773056" stroke-miterlimit="10"></path></g></g></g><mask id="mask2_302_1083" maskUnits="userSpaceOnUse" x="0" y="-1" width="137" height="530"><path d="M136.992 -0.00012207L136.992 528.77L0.499573 528.77L0.499596 -0.000128037L136.992 -0.00012207Z" fill="white"></path></mask><g mask="url(#mask2_302_1083)"><g opacity="0.7"><mask id="mask3_302_1083" maskUnits="userSpaceOnUse" x="0" y="0" width="137" height="529"><path d="M136.99 0L136.99 528.77L0.49762 528.77L0.497643 -5.96628e-06L136.99 0Z" fill="white"></path></mask><g mask="url(#mask3_302_1083)"><path d="M136.789 409.085L136.789 118.301L0.701312 0.444024L2.27423 528.322L136.789 409.085Z" stroke="#B5E4FF" stroke-width="0.773056" stroke-miterlimit="10"></path><path d="M13.4434 518.423L12.0552 10.2749" stroke="#B5E4FF" stroke-width="0.773056" stroke-miterlimit="10"></path><path d="M23.8086 509.234L22.584 19.393" stroke="#B5E4FF" stroke-width="0.773056" stroke-miterlimit="10"></path><path d="M33.459 500.68L32.3777 27.8748" stroke="#B5E4FF" stroke-width="0.773056" stroke-miterlimit="10"></path><path d="M42.4629 492.699L41.5088 35.7834" stroke="#B5E4FF" stroke-width="0.773056" stroke-miterlimit="10"></path><path d="M50.8828 485.234L50.0429 43.1742" stroke="#B5E4FF" stroke-width="0.773056" stroke-miterlimit="10"></path><path d="M58.7773 478.237L58.0383 50.0987" stroke="#B5E4FF" stroke-width="0.773056" stroke-miterlimit="10"></path><path d="M66.1895 471.666L65.5413 56.5975" stroke="#B5E4FF" stroke-width="0.773056" stroke-miterlimit="10"></path><path d="M73.168 465.481L72.6006 62.71" stroke="#B5E4FF" stroke-width="0.773056" stroke-miterlimit="10"></path><path d="M79.7422 459.652L79.2485 68.4684" stroke="#B5E4FF" stroke-width="0.773056" stroke-miterlimit="10"></path><path d="M85.9531 454.148L85.5261 73.9044" stroke="#B5E4FF" stroke-width="0.773056" stroke-miterlimit="10"></path><path d="M91.8262 448.94L91.4587 79.0429" stroke="#B5E4FF" stroke-width="0.773056" stroke-miterlimit="10"></path><path d="M97.3906 444.009L97.0767 83.9083" stroke="#B5E4FF" stroke-width="0.773056" stroke-miterlimit="10"></path><path d="M102.67 439.331L102.405 88.5209" stroke="#B5E4FF" stroke-width="0.773056" stroke-miterlimit="10"></path><path d="M107.682 434.887L107.462 92.9011" stroke="#B5E4FF" stroke-width="0.773056" stroke-miterlimit="10"></path><path d="M112.449 430.66L112.27 97.0656" stroke="#B5E4FF" stroke-width="0.773056" stroke-miterlimit="10"></path><path d="M116.99 426.634L116.848 101.03" stroke="#B5E4FF" stroke-width="0.773056" stroke-miterlimit="10"></path><path d="M121.318 422.798L121.21 104.808" stroke="#B5E4FF" stroke-width="0.773056" stroke-miterlimit="10"></path><path d="M125.451 419.136L125.373 108.414" stroke="#B5E4FF" stroke-width="0.773056" stroke-miterlimit="10"></path><path d="M129.396 415.636L129.347 111.856" stroke="#B5E4FF" stroke-width="0.773056" stroke-miterlimit="10"></path><path d="M133.174 412.289L133.15 115.149" stroke="#B5E4FF" stroke-width="0.773056" stroke-miterlimit="10"></path><path d="M136.789 132.231L0.777013 25.8605" stroke="#B5E4FF" stroke-width="0.773056" stroke-miterlimit="10"></path><path d="M136.789 146.154L0.852762 51.2486" stroke="#B5E4FF" stroke-width="0.773056" stroke-miterlimit="10"></path><path d="M136.789 160.069L0.928471 76.6097" stroke="#B5E4FF" stroke-width="0.773056" stroke-miterlimit="10"></path><path d="M136.789 173.976L1.00417 101.941" stroke="#B5E4FF" stroke-width="0.773056" stroke-miterlimit="10"></path><path d="M136.789 187.872L1.0799 127.246" stroke="#B5E4FF" stroke-width="0.773056" stroke-miterlimit="10"></path><path d="M136.789 201.762L1.15461 152.522" stroke="#B5E4FF" stroke-width="0.773056" stroke-miterlimit="10"></path><path d="M136.789 215.642L1.23032 177.769" stroke="#B5E4FF" stroke-width="0.773056" stroke-miterlimit="10"></path><path d="M136.789 229.515L1.30502 202.99" stroke="#B5E4FF" stroke-width="0.773056" stroke-miterlimit="10"></path><path d="M136.789 243.379L1.37974 228.181" stroke="#B5E4FF" stroke-width="0.773056" stroke-miterlimit="10"></path><path d="M136.789 257.234L1.45546 253.345" stroke="#B5E4FF" stroke-width="0.773056" stroke-miterlimit="10"></path><path d="M136.789 271.08L1.53018 278.482" stroke="#B5E4FF" stroke-width="0.773056" stroke-miterlimit="10"></path><path d="M136.789 284.919L1.60489 303.59" stroke="#B5E4FF" stroke-width="0.773056" stroke-miterlimit="10"></path><path d="M136.789 298.749L1.6796 328.671" stroke="#B5E4FF" stroke-width="0.773056" stroke-miterlimit="10"></path><path d="M136.789 312.571L1.75429 353.723" stroke="#B5E4FF" stroke-width="0.773056" stroke-miterlimit="10"></path><path d="M136.789 326.383L1.82901 378.748" stroke="#B5E4FF" stroke-width="0.773056" stroke-miterlimit="10"></path><path d="M136.789 340.188L1.90269 403.746" stroke="#B5E4FF" stroke-width="0.773056" stroke-miterlimit="10"></path><path d="M136.789 353.984L1.9774 428.717" stroke="#B5E4FF" stroke-width="0.773056" stroke-miterlimit="10"></path><path d="M136.789 367.771L2.05212 453.659" stroke="#B5E4FF" stroke-width="0.773056" stroke-miterlimit="10"></path><path d="M136.789 381.551L2.12582 478.574" stroke="#B5E4FF" stroke-width="0.773056" stroke-miterlimit="10"></path><path d="M136.789 395.322L2.20055 503.462" stroke="#B5E4FF" stroke-width="0.773056" stroke-miterlimit="10"></path></g></g></g><mask id="mask4_302_1083" maskUnits="userSpaceOnUse" x="0" y="411" width="601" height="118"><path d="M0.604858 411.266L600.496 411.266L600.496 528.77L0.604869 528.77L0.604858 411.266Z" fill="white"></path></mask><g mask="url(#mask4_302_1083)"><g opacity="0.7"><mask id="mask5_302_1083" maskUnits="userSpaceOnUse" x="0" y="411" width="601" height="118"><path d="M0.600952 411.266L600.492 411.266L600.492 528.771L0.600962 528.771L0.600952 411.266Z" fill="white"></path></mask><g mask="url(#mask5_302_1083)"><path d="M464.712 411.44L134.816 411.44L1.10705 528.596L599.986 527.242L464.712 411.44Z" stroke="#B5E4FF" stroke-width="0.773056" stroke-miterlimit="10"></path><path d="M588.756 517.627L12.2601 518.823" stroke="#B5E4FF" stroke-width="0.773056" stroke-miterlimit="10"></path><path d="M578.33 508.704L22.6037 509.758" stroke="#B5E4FF" stroke-width="0.773056" stroke-miterlimit="10"></path><path d="M568.627 500.396L32.2277 501.327" stroke="#B5E4FF" stroke-width="0.773056" stroke-miterlimit="10"></path><path d="M559.57 492.644L41.1982 493.466" stroke="#B5E4FF" stroke-width="0.773056" stroke-miterlimit="10"></path><path d="M551.105 485.396L49.5867 486.119" stroke="#B5E4FF" stroke-width="0.773056" stroke-miterlimit="10"></path><path d="M543.162 478.6L57.4377 479.236" stroke="#B5E4FF" stroke-width="0.773056" stroke-miterlimit="10"></path><path d="M535.709 472.217L64.813 472.775" stroke="#B5E4FF" stroke-width="0.773056" stroke-miterlimit="10"></path><path d="M528.693 466.211L71.748 466.7" stroke="#B5E4FF" stroke-width="0.773056" stroke-miterlimit="10"></path><path d="M522.08 460.55L78.281 460.975" stroke="#B5E4FF" stroke-width="0.773056" stroke-miterlimit="10"></path><path d="M515.834 455.203L84.447 455.571" stroke="#B5E4FF" stroke-width="0.773056" stroke-miterlimit="10"></path><path d="M509.928 450.148L90.2781 450.464" stroke="#B5E4FF" stroke-width="0.773056" stroke-miterlimit="10"></path><path d="M504.332 445.357L95.7967 445.627" stroke="#B5E4FF" stroke-width="0.773056" stroke-miterlimit="10"></path><path d="M499.025 440.813L101.031 441.04" stroke="#B5E4FF" stroke-width="0.773056" stroke-miterlimit="10"></path><path d="M493.982 436.498L105.998 436.687" stroke="#B5E4FF" stroke-width="0.773056" stroke-miterlimit="10"></path><path d="M489.188 432.393L110.724 432.548" stroke="#B5E4FF" stroke-width="0.773056" stroke-miterlimit="10"></path><path d="M484.621 428.485L115.222 428.607" stroke="#B5E4FF" stroke-width="0.773056" stroke-miterlimit="10"></path><path d="M480.268 424.758L119.508 424.851" stroke="#B5E4FF" stroke-width="0.773056" stroke-miterlimit="10"></path><path d="M476.113 421.2L123.598 421.267" stroke="#B5E4FF" stroke-width="0.773056" stroke-miterlimit="10"></path><path d="M472.145 417.802L127.505 417.845" stroke="#B5E4FF" stroke-width="0.773056" stroke-miterlimit="10"></path><path d="M468.348 414.551L131.242 414.572" stroke="#B5E4FF" stroke-width="0.773056" stroke-miterlimit="10"></path><path d="M150.621 411.44L29.943 528.531" stroke="#B5E4FF" stroke-width="0.773056" stroke-miterlimit="10"></path><path d="M166.416 411.44L58.7454 528.465" stroke="#B5E4FF" stroke-width="0.773056" stroke-miterlimit="10"></path><path d="M182.201 411.44L87.5162 528.4" stroke="#B5E4FF" stroke-width="0.773056" stroke-miterlimit="10"></path><path d="M197.977 411.44L116.253 528.335" stroke="#B5E4FF" stroke-width="0.773056" stroke-miterlimit="10"></path><path d="M213.746 411.44L144.965 528.27" stroke="#B5E4FF" stroke-width="0.773056" stroke-miterlimit="10"></path><path d="M229.502 411.44L173.639 528.206" stroke="#B5E4FF" stroke-width="0.773056" stroke-miterlimit="10"></path><path d="M245.248 411.44L202.281 528.14" stroke="#B5E4FF" stroke-width="0.773056" stroke-miterlimit="10"></path><path d="M260.988 411.44L230.896 528.076" stroke="#B5E4FF" stroke-width="0.773056" stroke-miterlimit="10"></path><path d="M276.717 411.44L259.474 528.012" stroke="#B5E4FF" stroke-width="0.773056" stroke-miterlimit="10"></path><path d="M292.436 411.44L288.024 527.946" stroke="#B5E4FF" stroke-width="0.773056" stroke-miterlimit="10"></path><path d="M308.144 411.44L316.541 527.882" stroke="#B5E4FF" stroke-width="0.773056" stroke-miterlimit="10"></path><path d="M323.845 411.44L345.027 527.818" stroke="#B5E4FF" stroke-width="0.773056" stroke-miterlimit="10"></path><path d="M339.534 411.44L373.48 527.754" stroke="#B5E4FF" stroke-width="0.773056" stroke-miterlimit="10"></path><path d="M355.216 411.44L401.904 527.689" stroke="#B5E4FF" stroke-width="0.773056" stroke-miterlimit="10"></path><path d="M370.886 411.44L430.295 527.625" stroke="#B5E4FF" stroke-width="0.773056" stroke-miterlimit="10"></path><path d="M386.545 411.44L458.652 527.562" stroke="#B5E4FF" stroke-width="0.773056" stroke-miterlimit="10"></path><path d="M402.198 411.44L486.982 527.497" stroke="#B5E4FF" stroke-width="0.773056" stroke-miterlimit="10"></path><path d="M417.842 411.44L515.281 527.433" stroke="#B5E4FF" stroke-width="0.773056" stroke-miterlimit="10"></path><path d="M433.474 411.44L543.547 527.369" stroke="#B5E4FF" stroke-width="0.773056" stroke-miterlimit="10"></path><path d="M449.096 411.44L571.781 527.305" stroke="#B5E4FF" stroke-width="0.773056" stroke-miterlimit="10"></path></g></g></g><rect width="329.322" height="294.534" transform="translate(135.895 116.731)" fill="#B5E4FF"></rect></svg>